<svg height="512" viewBox="-31 0 512 512" width="512" xmlns="http://www.w3.org/2000/svg"><path d="m450 361-28.800781 30h-386.101563l-35.097656-30 30-180h390zm0 0" fill="#c6715a"/><path d="m450 361-28.800781 30h-196.199219v-210h195zm0 0" fill="#99503d"/><path d="m360 91v195h-270v-195l90-91h90zm0 0" fill="#b9dd39"/><g fill="#a8d32a"><path d="m203.695312 105.988281 21.296876-21.296875 21.300781 21.296875-21.300781 21.300781zm0 0"/><path d="m180 15v-15h-90v91h15c41.351562 0 75-34.648438 75-76zm0 0"/><path d="m360 286h-135v-286h45l90 91zm0 0"/></g><path d="m246.300781 106-21.300781 21.300781v-42.601562zm0 0" fill="#93bf00"/><path d="m0 361h450v151h-450zm0 0" fill="#99503d"/><path d="m225 361h225v151h-225zm0 0" fill="#663325"/><path d="m345 91h15v-91h-90v15c0 41.351562 33.648438 76 75 76zm0 0" fill="#93bf00"/><path d="m300 226c0 24.601562-12 46.199219-30.300781 60h-89.398438c-18.300781-13.800781-30.300781-35.398438-30.300781-60 0-41.398438 33.601562-75 75-75s75 33.601562 75 75zm0 0" fill="#a8d32a"/><path d="m300 226c0 24.601562-12 46.199219-30.300781 60h-44.699219v-135c41.398438 0 75 33.601562 75 75zm0 0" fill="#93bf00"/><path d="m225 181c-24.902344 0-45 20.097656-45 45 0 24.898438 20.097656 45 45 45s45-20.101562 45-45c0-24.902344-20.097656-45-45-45zm0 0" fill="#b9dd39"/><path d="m270 226c0 24.898438-20.097656 45-45 45v-90c24.902344 0 45 20.097656 45 45zm0 0" fill="#a8d32a"/><path d="m60 271h330v30h-330zm0 0" fill="#3e5959"/><path d="m225 271h165v30h-165zm0 0" fill="#384949"/></svg>