<svg height="464" viewBox="0 -56 464 464" width="464" xmlns="http://www.w3.org/2000/svg"><path d="m16 200.949219h304c8.835938 0 16 7.164062 16 16v136h-336v-136c0-8.835938 7.164062-16 16-16zm0 0" fill="#69b0bb"/><path d="m80 200.949219h176v24c0 4.417969-3.582031 8-8 8h-160c-4.417969 0-8-3.582031-8-8zm0 0" fill="#5d9aa4"/><path d="m0 264.949219h336v88h-336zm0 0" fill="#8aced8"/><path d="m352 128.949219-24 8-47.785156-40h-80l-102.144532 48.5625c-10.640624 4.378906-22.894531 1.003906-29.796874-8.203125-7.15625-9.539063-6.65625-22.785156 1.199218-31.757813l158.527344-95.71875c17.6875-10.675781 39.25-12.777343 58.664062-5.722656l57.335938 20.839844h56v104zm0 0" fill="#fdc9a6"/><path d="m280.214844 96.949219h-80l14.296875-11.4375c9.601562-7.679688 22.757812-9.179688 33.839843-3.859375zm0 0" fill="#f6bb92"/><path d="m216 152.949219c0 30.929687-25.070312 56-56 56s-56-25.070313-56-56c0-30.925781 25.070312-56 56-56s56 25.074219 56 56zm0 0" fill="#fbb540"/><path d="m216 152.949219c0 30.929687-25.070312 56-56 56s-56-25.070313-56-56c0-30.925781 25.070312-56 56-56s56 25.074219 56 56zm0 0" fill="#fbb540"/><path d="m204.855469 186.484375-16.566407-16.566406c-.144531-.136719-.328124-.183594-.480468-.3125 2.101562-7.21875.023437-15.011719-5.402344-20.21875-5.425781-5.210938-13.292969-6.976563-20.421875-4.582031l-7.585937 2.519531c-1.160157.402343-2.4375.269531-3.496094-.359375-1.671875-.960938-2.484375-2.929688-1.984375-4.796875.503906-1.863281 2.199219-3.15625 4.128906-3.144531h7.671875c4.417969 0 8-3.582032 8-8 0-4.417969-3.582031-8-8-8h-7.671875c-3.246094.015624-6.441406.816406-9.3125 2.335937l-17.269531-17.28125c-4.296875 3.210937-8.105469 7.023437-11.3125 11.320313l18.398437 18.398437c-2.042969 7.214844.074219 14.964844 5.496094 20.140625 5.425781 5.175781 13.269531 6.921875 20.378906 4.539062l7.621094-2.476562c1.160156-.378906 2.425781-.25 3.480469.359375 1.671875.960937 2.488281 2.929687 1.988281 4.792969-.503906 1.863281-2.195313 3.15625-4.125 3.148437h-7.671875c-4.417969 0-8 3.582031-8 8s3.582031 8 8 8h7.671875c3.25-.015625 6.441406-.816406 9.3125-2.335937l15.839844 15.839844c4.296875-3.207032 8.105469-7.019532 11.3125-11.320313zm0 0" fill="#ea9d2d"/><path d="m400 24.949219h64v136h-64zm0 0" fill="#b9b9b9"/><path d="m424 120.949219h16v16h-16zm0 0" fill="#a8a8a8"/><path d="m193.34375 117.597656c3.957031-11.960937 15.910156-19.371094 28.382812-17.597656l34.488282 4.925781 24-8 47.785156 40-67.574219 22.59375c-2.753906.929688-5.707031 1.097657-8.546875.480469l-39.480468-8.800781c-7.183594-1.601563-13.351563-6.167969-16.984376-12.570313-3.632812-6.402344-4.382812-14.042968-2.070312-21.03125zm0 0" fill="#fdc9a6"/></svg>