<svg viewBox="0 -15 512 512" xmlns="http://www.w3.org/2000/svg"><path d="m391 135h-30c0-41.351562 33.648438-75 75-75v30c-24.8125 0-45 20.1875-45 45zm0 0" fill="#53433f"/><path d="m481 225c0 57.988281-47.011719 105-105 105s-105-47.011719-105-105 47.011719-105 105-105 105 47.011719 105 105zm0 0" fill="#ff6c6c"/><path d="m331 165v90h-150v-90c0-23.402344 11.398438-45.601562 30-59.699219v-90.300781h90v90.300781c18.601562 14.097657 30 36.296875 30 59.699219zm0 0" fill="#ececf1"/><path d="m331 255h-75v-240h45v90.300781c18.601562 14.097657 30 36.296875 30 59.699219zm0 0" fill="#e2e2e7"/><path d="m206.472656 199.351562c-16.976562-46.65625-39.140625-88.492187-62.386718-117.789062-34.117188-42.992188-59.5-45.335938-74.78125-39.800781-29.609376 10.785156-36.367188 56.085937-28.761719 111.136719l13.644531 13.300781-8.28125 16.988281c2.082031 9.617188 4.554688 19.382812 7.316406 29.183594l21.488282 10.210937-12.492188 18.511719c1.09375 3.179688 2.140625 6.378906 3.292969 9.542969l26.523437 66.574219 145.101563-40.605469zm0 0" fill="#ffd400"/><path d="m114.1875 121.199219-73.644531 31.699219c1.359375 9.84375 3.128906 19.960937 5.363281 30.289062l78.535156-33.804688zm0 0" fill="#fdbf00"/><path d="m134.710938 177.582031-81.488282 34.789063c2.699219 9.589844 5.71875 19.175781 8.996094 28.722656l82.746094-35.328125zm0 0" fill="#fdbf00"/><path d="m181 0h150v30h-150zm0 0" fill="#76e2f8"/><path d="m256 0h75v30h-75zm0 0" fill="#20cee5"/><path d="m481 257.101562-32.101562 223.898438h-385.796876l-32.101562-223.898438zm0 0" fill="#ff6c6c"/><path d="m481 257.101562-32.101562 223.898438h-192.898438v-223.898438zm0 0" fill="#ff4949"/><path d="m286 292.5c-11.101562 0-21.898438 4.5-30 12.597656-8.101562-8.097656-18.898438-12.597656-30-12.597656-25.199219 0-45 21-45 47.398438 0 33.300781 33.601562 56.101562 75 91.203124 41.699219-35.402343 75-57.003906 75-91.203124 0-26.398438-19.800781-47.398438-45-47.398438zm0 0" fill="#ececf1"/><path d="m256 431.101562v-126c8.101562-8.101562 18.898438-12.601562 30-12.601562 25.199219 0 45 21 45 47.398438 0 34.199218-33.300781 55.800781-75 91.203124zm0 0" fill="#e2e2e7"/><path d="m0 240h512v30h-512zm0 0" fill="#725d57"/><path d="m256 240h256v30h-256zm0 0" fill="#68544f"/></svg>