<?xml version="1.0" encoding="iso-8859-1"?>
<!-- Generator: Adobe Illustrator 21.0.0, SVG Export Plug-In . SVG Version: 6.00 Build 0)  -->
<svg version="1.1" id="Capa_1" xmlns="http://www.w3.org/2000/svg" xmlns:xlink="http://www.w3.org/1999/xlink" x="0px" y="0px"
	 viewBox="0 0 512.002 512.002" style="enable-background:new 0 0 512.002 512.002;" xml:space="preserve">
<path style="fill:#C48958;" d="M223.401,198.543l24.6,24.6c-6.865-6.865-6.865-17.995,0-24.86s17.996-6.865,24.861,0l64.078,64.078
	c-9.613-9.618-9.611-25.208,0.005-34.824l7.446-7.446l76.204,76.204c9.737,9.737,13.865,23.75,10.962,37.21l-1.419,6.579
	l44.871,44.871l-90.056,90.056l-44.871-44.871l-6.58,1.419c-13.46,2.903-27.474-1.225-37.21-10.962l-41.228-41.228l-56.8-56.8
	c-6.97-6.97-7.103-18.511-0.001-25.346c6.882-6.624,17.832-6.544,24.616,0.24l-24.6-24.6c-6.865-6.865-6.865-17.995,0-24.86
	s17.995-6.865,24.86,0l-24.6-24.6c-6.865-6.865-6.865-17.996,0-24.861C205.406,191.678,216.536,191.678,223.401,198.543z"/>
<g>
	<path style="fill:#B27A49;" d="M248.001,223.142c-6.865-6.865-6.865-17.995,0-24.86l87.073,87.073l-12.43,12.43L248.001,223.142z"
		/>
	<path style="fill:#B27A49;" d="M198.28,272.863c-6.865-6.865-6.865-17.995,0-24.86l87.073,87.073l-12.43,12.43L198.28,272.863z"/>
	<path style="fill:#B27A49;" d="M198.022,322.326c-6.865-6.865-6.865-17.995,0-24.86l62.47,62.47l-12.43,12.43L198.022,322.326z"/>
	<path style="fill:#B27A49;" d="M198.541,223.403c-6.865-6.865-6.865-17.995,0-24.86l111.672,111.672l-12.43,12.43L198.541,223.403z
		"/>
	<path style="fill:#B27A49;" d="M386.422,286.982l16.021,16.021l-22.874,22.874c-10.387,10.387-10.387,27.287,0,37.673
		l58.422,58.422l-16.021,16.021l-58.422-58.422c-19.22-19.22-19.22-50.494,0-69.715l10.444-10.444L336.94,262.36
		c-7.881-7.885-9.294-19.782-4.251-29.112L386.422,286.982z"/>
</g>
<rect x="350.711" y="393.264" transform="matrix(0.7071 -0.7071 0.7071 0.7071 -178.1008 429.9836)" style="fill:#64E1DC;" width="158.548" height="73.429"/>
<rect x="418.365" y="365.23" transform="matrix(0.7071 -0.7071 0.7071 0.7071 -150.0714 441.5854)" style="fill:#00C8C8;" width="79.279" height="73.429"/>
<path style="fill:#F2D1A5;" d="M313.457,288.599l-24.6-24.6c6.865,6.865,17.995,6.865,24.86,0c6.865-6.865,6.865-17.996,0-24.861
	l-64.078-64.078c9.618,9.613,25.208,9.611,34.824-0.005l7.446-7.446l-76.204-76.204c-9.737-9.737-23.75-13.865-37.21-10.962
	l-6.579,1.419l-44.871-44.871l-90.056,90.056l44.871,44.871l-1.419,6.58c-2.903,13.46,1.225,27.474,10.962,37.21l41.228,41.228
	l56.8,56.8c6.97,6.97,18.511,7.103,25.346,0.001c6.624-6.882,6.544-17.832-0.24-24.616l24.6,24.6c6.865,6.865,17.995,6.865,24.86,0
	s6.865-17.995,0-24.86l24.6,24.6c6.865,6.865,17.996,6.865,24.861,0C320.322,306.594,320.322,295.464,313.457,288.599z"/>
<g>
	<path style="fill:#F2BB88;" d="M288.858,263.999c6.865,6.865,17.995,6.865,24.86,0l-87.073-87.073l-12.43,12.43L288.858,263.999z"
		/>
	<path style="fill:#F2BB88;" d="M239.136,313.72c6.865,6.865,17.995,6.865,24.86,0l-87.073-87.073l-12.43,12.43L239.136,313.72z"/>
	<path style="fill:#F2BB88;" d="M189.674,313.978c6.865,6.865,17.995,6.865,24.86,0l-62.47-62.47l-12.43,12.43L189.674,313.978z"/>
	<path style="fill:#F2BB88;" d="M288.597,313.459c6.865,6.865,17.995,6.865,24.86,0L201.785,201.787l-12.43,12.43L288.597,313.459z"
		/>
	<path style="fill:#F2BB88;" d="M278.752,179.312l-53.734-53.734l-12.43,12.43l37.052,37.052
		C257.525,182.941,269.422,184.355,278.752,179.312z"/>
</g>
<rect x="2.746" y="45.309" transform="matrix(0.7071 -0.7071 0.7071 0.7071 -33.9764 82.0211)" style="fill:#FE8205;" width="158.548" height="73.429"/>
<rect x="14.351" y="73.333" transform="matrix(0.7071 -0.7071 0.7071 0.7071 -62.0023 70.4095)" style="fill:#FE6A16;" width="79.279" height="73.429"/>
<g>
</g>
<g>
</g>
<g>
</g>
<g>
</g>
<g>
</g>
<g>
</g>
<g>
</g>
<g>
</g>
<g>
</g>
<g>
</g>
<g>
</g>
<g>
</g>
<g>
</g>
<g>
</g>
<g>
</g>
</svg>
